<?xml version="1.0" encoding="utf-8"?>
<!-- Generator: Adobe Illustrator 24.0.2, SVG Export Plug-In . SVG Version: 6.00 Build 0)  -->
<svg version="1.1" id="Livello_1" xmlns="http://www.w3.org/2000/svg" xmlns:xlink="http://www.w3.org/1999/xlink" x="0px" y="0px"
	 viewBox="136.33 214.44 525.24 140.93" style="enable-background:new 136.33 214.44 525.24 140.93;" xml:space="preserve">
<style type="text/css">
	.st0{fill:#03495B;}
	.st1{fill:url(#SVGID_1_);}
	.st2{fill:url(#SVGID_2_);}
</style>
<g>
	<g>
		<path class="st0" d="M197.21,327.79c0,2.92-0.44,5.21-1.31,6.89c-0.87,1.67-2.2,2.9-3.99,3.67c-1.79,0.77-4.07,1.26-6.84,1.48
			s-6.07,0.32-9.89,0.32c-4.37,0-8.07-0.22-11.11-0.66c-3.04-0.44-5.5-1.35-7.36-2.71c-1.87-1.37-3.22-3.42-4.07-6.16
			c-0.85-2.74-1.27-6.39-1.27-10.96c0-4.43,0.41-7.99,1.24-10.66c0.83-2.67,2.17-4.68,4.02-6.04s4.29-2.26,7.31-2.71
			c3.02-0.45,6.71-0.68,11.08-0.68c5,0,9.14,0.35,12.42,1.05c3.28,0.7,5.73,2.04,7.35,4c1.62,1.97,2.43,4.85,2.43,8.65v8.38h-39.29
			c0.02,2.9,0.23,5.21,0.61,6.96c0.38,1.74,1.15,3.05,2.31,3.94s2.88,1.46,5.17,1.75c2.3,0.28,5.36,0.42,9.18,0.42
			c3.44,0,6.22-0.07,8.33-0.2c2.11-0.14,3.72-0.43,4.82-0.9c1.1-0.46,1.84-1.16,2.22-2.09c0.38-0.93,0.58-2.17,0.58-3.73H197.21z
			 M175.02,304.98c-3.69,0-6.66,0.14-8.91,0.41s-3.96,0.8-5.14,1.58c-1.18,0.78-1.97,1.94-2.39,3.48c-0.42,1.54-0.64,3.56-0.66,6.07
			h33.05v-3.26c0-1.63-0.19-2.98-0.56-4.05c-0.37-1.07-1.1-1.92-2.19-2.54s-2.69-1.06-4.8-1.31S178.5,304.98,175.02,304.98z"/>
		<path class="st0" d="M228.46,340.14c-4.37,0-8.08-0.22-11.13-0.66c-3.05-0.44-5.52-1.35-7.4-2.71c-1.88-1.37-3.25-3.42-4.11-6.16
			c-0.86-2.74-1.29-6.39-1.29-10.96c0-4.43,0.43-7.99,1.29-10.66c0.86-2.67,2.23-4.68,4.11-6.04c1.88-1.36,4.34-2.26,7.4-2.71
			c3.05-0.45,6.76-0.68,11.13-0.68c5.23,0,9.53,0.3,12.91,0.9c3.38,0.6,5.89,1.83,7.52,3.68c1.63,1.86,2.44,4.68,2.44,8.48h-6.24
			c0-2.19-0.45-3.83-1.36-4.92c-0.91-1.09-2.56-1.81-4.95-2.17c-2.4-0.36-5.84-0.54-10.32-0.54c-4.03,0-7.22,0.17-9.57,0.51
			c-2.35,0.34-4.08,1-5.19,1.99c-1.11,0.98-1.83,2.45-2.15,4.39c-0.33,1.95-0.49,4.54-0.49,7.77c0,3.35,0.16,6.03,0.49,8.04
			c0.33,2.01,1.05,3.52,2.15,4.53s2.84,1.67,5.19,2c2.35,0.33,5.54,0.49,9.57,0.49c3.42,0,6.21-0.1,8.38-0.29
			c2.17-0.19,3.86-0.58,5.06-1.15c1.2-0.58,2.03-1.41,2.49-2.51c0.46-1.1,0.7-2.56,0.7-4.39h6.24c0,3.03-0.45,5.46-1.36,7.3
			c-0.9,1.83-2.29,3.21-4.14,4.14c-1.86,0.93-4.22,1.55-7.11,1.87C235.84,339.98,232.42,340.14,228.46,340.14z"/>
		<path class="st0" d="M281.77,340.14c-4.37,0-8.08-0.22-11.13-0.66c-3.05-0.44-5.52-1.35-7.4-2.71c-1.88-1.37-3.25-3.42-4.11-6.16
			c-0.86-2.74-1.29-6.39-1.29-10.96c0-4.43,0.43-7.99,1.29-10.66c0.86-2.67,2.23-4.68,4.11-6.04c1.88-1.36,4.34-2.26,7.4-2.71
			c3.05-0.45,6.76-0.68,11.13-0.68c4.39,0,8.1,0.23,11.15,0.68c3.04,0.45,5.5,1.36,7.38,2.71c1.88,1.36,3.25,3.37,4.11,6.04
			c0.86,2.67,1.29,6.22,1.29,10.66c0,4.57-0.43,8.22-1.29,10.96c-0.86,2.74-2.23,4.79-4.11,6.16c-1.88,1.37-4.34,2.27-7.38,2.71
			C289.87,339.92,286.16,340.14,281.77,340.14z M299.18,319.64c0-3.24-0.16-5.83-0.49-7.77c-0.33-1.95-1.05-3.41-2.15-4.39
			c-1.11-0.98-2.83-1.65-5.18-1.99c-2.34-0.34-5.54-0.51-9.59-0.51c-4.03,0-7.22,0.17-9.57,0.51c-2.35,0.34-4.08,1-5.19,1.99
			c-1.11,0.98-1.83,2.45-2.15,4.39c-0.33,1.95-0.49,4.54-0.49,7.77c0,3.35,0.16,6.03,0.49,8.04c0.33,2.01,1.05,3.52,2.15,4.53
			s2.84,1.67,5.19,2c2.35,0.33,5.54,0.49,9.57,0.49c4.05,0,7.24-0.16,9.59-0.49c2.34-0.33,4.07-1,5.18-2
			c1.11-1.01,1.83-2.52,2.15-4.53C299.01,325.67,299.18,322.99,299.18,319.64z"/>
		<path class="st0" d="M331.55,339.39l-20.43-39.09h7.67l17.1,34.2h0.07l17.44-34.2h7.26l-20.43,39.09H331.55z"/>
		<path class="st0" d="M387.85,340.14c-4.37,0-8.08-0.22-11.13-0.66c-3.05-0.44-5.52-1.35-7.4-2.71c-1.88-1.37-3.25-3.42-4.11-6.16
			c-0.86-2.74-1.29-6.39-1.29-10.96c0-4.43,0.43-7.99,1.29-10.66c0.86-2.67,2.23-4.68,4.11-6.04c1.88-1.36,4.34-2.26,7.4-2.71
			c3.05-0.45,6.76-0.68,11.13-0.68c4.39,0,8.1,0.23,11.15,0.68c3.04,0.45,5.5,1.36,7.38,2.71s3.25,3.37,4.11,6.04
			c0.86,2.67,1.29,6.22,1.29,10.66c0,4.57-0.43,8.22-1.29,10.96c-0.86,2.74-2.23,4.79-4.11,6.16c-1.88,1.37-4.34,2.27-7.38,2.71
			C395.95,339.92,392.23,340.14,387.85,340.14z M405.25,319.64c0-3.24-0.17-5.83-0.49-7.77c-0.33-1.95-1.05-3.41-2.16-4.39
			c-1.11-0.98-2.83-1.65-5.17-1.99c-2.34-0.34-5.54-0.51-9.59-0.51c-4.03,0-7.22,0.17-9.57,0.51c-2.35,0.34-4.08,1-5.19,1.99
			c-1.11,0.98-1.83,2.45-2.16,4.39s-0.49,4.54-0.49,7.77c0,3.35,0.16,6.03,0.49,8.04s1.05,3.52,2.16,4.53
			c1.11,1.01,2.84,1.67,5.19,2s5.54,0.49,9.57,0.49c4.05,0,7.25-0.16,9.59-0.49c2.34-0.33,4.07-1,5.17-2s1.83-2.52,2.16-4.53
			C405.09,325.67,405.25,322.99,405.25,319.64z"/>
		<path class="st0" d="M421.54,339.39v-52.12h6.52v52.12H421.54z"/>
		<path class="st0" d="M457,339.39c-3.98,0-7.17-0.4-9.57-1.21c-2.4-0.8-4.13-2.23-5.21-4.28c-1.08-2.05-1.61-4.93-1.61-8.64v-35.66
			h6.52v10.69h24.06v5.36h-24.06v19.61c0,2.53,0.23,4.42,0.7,5.67s1.4,2.06,2.82,2.44s3.53,0.58,6.36,0.58
			c2.51,0,4.48-0.08,5.92-0.24c1.44-0.16,2.49-0.58,3.17-1.27c0.68-0.69,1.11-1.83,1.29-3.41c0.18-1.58,0.27-3.81,0.27-6.68h5.77
			c0,3.75-0.23,6.76-0.7,9.03c-0.46,2.26-1.29,3.97-2.48,5.12c-1.19,1.15-2.85,1.92-4.99,2.31
			C463.13,339.2,460.37,339.39,457,339.39z"/>
		<path class="st0" d="M501.39,340.14c-4.68,0-8.55-0.24-11.59-0.73c-3.04-0.49-5.31-1.55-6.79-3.21s-2.22-4.22-2.22-7.7
			c0-3.55,0.7-6.16,2.09-7.82c1.39-1.66,3.6-2.74,6.62-3.24c3.02-0.5,6.98-0.75,11.89-0.75c3.98,0,7.32,0.09,10.01,0.27
			c2.69,0.18,5.1,0.5,7.23,0.95c-0.04-3.01-0.25-5.38-0.61-7.11c-0.36-1.73-1.04-3.01-2.04-3.85c-1-0.84-2.45-1.37-4.36-1.61
			c-1.91-0.24-4.45-0.36-7.62-0.36c-3.62,0-6.45,0.08-8.5,0.24c-2.05,0.16-3.54,0.44-4.46,0.85s-1.51,1-1.75,1.76
			c-0.24,0.77-0.36,1.76-0.36,2.99h-6.52c0-2.44,0.33-4.41,1-5.9s1.8-2.62,3.41-3.39c1.61-0.77,3.81-1.29,6.6-1.56
			s6.32-0.41,10.57-0.41c4.57,0,8.25,0.29,11.04,0.88c2.79,0.59,4.92,1.65,6.38,3.17c1.46,1.53,2.44,3.66,2.95,6.4
			c0.51,2.74,0.76,6.27,0.76,10.59v18.8h-6.52v-2.68c-0.77,0.81-1.83,1.47-3.19,1.97c-1.36,0.5-3.16,0.87-5.41,1.1
			C507.77,340.02,504.89,340.14,501.39,340.14z M501.39,334.84c3.87,0,6.96-0.04,9.26-0.14c2.31-0.09,4.03-0.34,5.17-0.75
			c1.14-0.41,1.89-1.06,2.26-1.97c0.36-0.9,0.54-2.17,0.54-3.8v-6.01l-17.24-0.2c-3.05-0.04-5.51,0-7.38,0.12
			c-1.87,0.13-3.29,0.4-4.26,0.81c-0.97,0.42-1.62,1.07-1.95,1.97c-0.33,0.89-0.49,2.1-0.49,3.61c0,1.47,0.16,2.64,0.49,3.5
			c0.33,0.86,0.98,1.49,1.95,1.9s2.39,0.67,4.26,0.78S498.33,334.84,501.39,334.84z"/>
		<path class="st0" d="M533.69,293.79v-6.52h6.51v6.52H533.69z M533.69,339.39v-36.92h6.51v36.92H533.69z"/>
		<path class="st0" d="M571.73,340.14c-4.37,0-8.08-0.22-11.13-0.66c-3.05-0.44-5.52-1.35-7.4-2.71c-1.88-1.37-3.25-3.42-4.11-6.16
			c-0.86-2.74-1.29-6.39-1.29-10.96c0-4.43,0.43-7.99,1.29-10.66c0.86-2.67,2.23-4.68,4.11-6.04c1.88-1.36,4.34-2.26,7.4-2.71
			c3.05-0.45,6.76-0.68,11.13-0.68c5.23,0,9.53,0.3,12.91,0.9c3.38,0.6,5.89,1.83,7.52,3.68c1.63,1.86,2.44,4.68,2.44,8.48h-6.24
			c0-2.19-0.45-3.83-1.36-4.92c-0.9-1.09-2.56-1.81-4.95-2.17s-5.84-0.54-10.32-0.54c-4.03,0-7.22,0.17-9.57,0.51
			c-2.35,0.34-4.08,1-5.19,1.99c-1.11,0.98-1.83,2.45-2.16,4.39s-0.49,4.54-0.49,7.77c0,3.35,0.16,6.03,0.49,8.04
			s1.05,3.52,2.16,4.53c1.11,1.01,2.84,1.67,5.19,2s5.54,0.49,9.57,0.49c3.42,0,6.21-0.1,8.38-0.29c2.17-0.19,3.86-0.58,5.06-1.15
			s2.03-1.41,2.49-2.51s0.7-2.56,0.7-4.39h6.24c0,3.03-0.45,5.46-1.36,7.3c-0.91,1.83-2.29,3.21-4.14,4.14
			c-1.86,0.93-4.22,1.55-7.11,1.87C579.11,339.98,575.69,340.14,571.73,340.14z"/>
		<path class="st0" d="M622.83,340.14c-4.68,0-8.55-0.24-11.59-0.73c-3.04-0.49-5.31-1.55-6.79-3.21s-2.22-4.22-2.22-7.7
			c0-3.55,0.7-6.16,2.09-7.82c1.39-1.66,3.6-2.74,6.62-3.24c3.02-0.5,6.98-0.75,11.89-0.75c3.98,0,7.32,0.09,10.01,0.27
			c2.69,0.18,5.1,0.5,7.23,0.95c-0.04-3.01-0.25-5.38-0.61-7.11c-0.36-1.73-1.04-3.01-2.04-3.85c-1-0.84-2.45-1.37-4.36-1.61
			c-1.91-0.24-4.45-0.36-7.62-0.36c-3.62,0-6.45,0.08-8.5,0.24c-2.05,0.16-3.54,0.44-4.46,0.85s-1.51,1-1.75,1.76
			c-0.24,0.77-0.36,1.76-0.36,2.99h-6.52c0-2.44,0.33-4.41,1-5.9s1.8-2.62,3.41-3.39c1.61-0.77,3.81-1.29,6.6-1.56
			s6.32-0.41,10.57-0.41c4.57,0,8.25,0.29,11.04,0.88c2.79,0.59,4.92,1.65,6.38,3.17c1.46,1.53,2.44,3.66,2.95,6.4
			c0.51,2.74,0.76,6.27,0.76,10.59v18.8h-6.52v-2.68c-0.77,0.81-1.83,1.47-3.19,1.97c-1.36,0.5-3.16,0.87-5.41,1.1
			C629.22,340.02,626.34,340.14,622.83,340.14z M622.83,334.84c3.87,0,6.96-0.04,9.26-0.14c2.31-0.09,4.03-0.34,5.17-0.75
			c1.14-0.41,1.89-1.06,2.26-1.97c0.36-0.9,0.54-2.17,0.54-3.8v-6.01l-17.24-0.2c-3.05-0.04-5.51,0-7.38,0.12
			c-1.87,0.13-3.29,0.4-4.26,0.81c-0.97,0.42-1.62,1.07-1.95,1.97c-0.33,0.89-0.49,2.1-0.49,3.61c0,1.47,0.16,2.64,0.49,3.5
			c0.33,0.86,0.98,1.49,1.95,1.9s2.39,0.67,4.26,0.78S619.78,334.84,622.83,334.84z"/>
	</g>
</g>
<g>
	<g>
		<linearGradient id="SVGID_1_" gradientUnits="userSpaceOnUse" x1="355.7435" y1="262.1885" x2="400.3615" y2="262.1885">
			<stop  offset="0" style="stop-color:#00A253"/>
			<stop  offset="0.0595" style="stop-color:#009A48"/>
			<stop  offset="0.1303" style="stop-color:#009240"/>
			<stop  offset="0.2032" style="stop-color:#118D3B"/>
			<stop  offset="0.2809" style="stop-color:#168C3A"/>
			<stop  offset="0.6685" style="stop-color:#18696F"/>
			<stop  offset="0.8876" style="stop-color:#1C4C45"/>
			<stop  offset="1" style="stop-color:#2D393F"/>
		</linearGradient>
		<path class="st1" d="M383.92,265.91c-7.33,9.2-14.55,18.26-21.77,27.31c0.08,0.08,0.16,0.16,0.24,0.23
			c0.36-0.14,0.72-0.25,1.07-0.42c3.72-1.8,7.49-3.5,11.13-5.43c11.15-5.9,18.79-14.79,22.45-26.93c2.93-9.71,3.75-19.68,3.13-29.77
			c-0.02-0.39-0.08-0.77-0.14-1.36c-3.16,4.43-7.21,7.38-11.82,9.61c-4.71,2.27-9.54,4.3-14.11,6.82
			c-10.86,5.97-16.8,15.27-17.65,27.65c-0.28,4.15-0.15,8.33-0.27,12.5c-0.08,2.84-0.27,5.68-0.43,8.71
			c4.91-7.69,9.74-15.28,14.67-23c-2.42,0.31-4.62,0.59-6.82,0.88c-0.04-0.11-0.09-0.21-0.13-0.32
			c7.14-7.35,14.28-14.71,21.41-22.06c0.08,0.06,0.16,0.12,0.23,0.18c-2.99,5.47-5.98,10.93-9.09,16.6
			C378.82,266.68,381.33,266.3,383.92,265.91z"/>
		<linearGradient id="SVGID_2_" gradientUnits="userSpaceOnUse" x1="355.7435" y1="262.1885" x2="400.3615" y2="262.1885">
			<stop  offset="0" style="stop-color:#00A253"/>
			<stop  offset="0.0595" style="stop-color:#009A48"/>
			<stop  offset="0.1303" style="stop-color:#009240"/>
			<stop  offset="0.2032" style="stop-color:#118D3B"/>
			<stop  offset="0.2809" style="stop-color:#168C3A"/>
			<stop  offset="0.6685" style="stop-color:#18696F"/>
			<stop  offset="0.8876" style="stop-color:#1C4C45"/>
			<stop  offset="1" style="stop-color:#2D393F"/>
		</linearGradient>
		<path class="st2" d="M383.92,265.91c-2.59,0.4-5.09,0.78-7.9,1.21c3.1-5.67,6.09-11.14,9.09-16.6c-0.08-0.06-0.16-0.12-0.23-0.18
			c-7.14,7.35-14.28,14.71-21.41,22.06c0.04,0.11,0.09,0.21,0.13,0.32c2.2-0.28,4.4-0.57,6.82-0.88c-4.92,7.72-9.76,15.31-14.67,23
			c0.15-3.04,0.34-5.87,0.43-8.71c0.12-4.16-0.01-8.34,0.27-12.5c0.85-12.39,6.78-21.68,17.65-27.65c4.57-2.51,9.41-4.54,14.11-6.82
			c4.62-2.23,8.66-5.18,11.82-9.61c0.06,0.59,0.12,0.98,0.14,1.36c0.62,10.1-0.21,20.06-3.13,29.77
			c-3.65,12.13-11.3,21.02-22.45,26.93c-3.65,1.93-7.42,3.63-11.13,5.43c-0.34,0.17-0.71,0.28-1.07,0.42
			c-0.08-0.08-0.16-0.16-0.24-0.23C369.37,284.16,376.59,275.11,383.92,265.91z"/>
	</g>
</g>
</svg>
